<?xml version="1.0" standalone="no"?>
<!DOCTYPE svg PUBLIC "-//W3C//DTD SVG 20010904//EN"
 "http://www.w3.org/TR/2001/REC-SVG-20010904/DTD/svg10.dtd">
<svg version="1.0" xmlns="http://www.w3.org/2000/svg"
 width="530.000000pt" height="531.000000pt" viewBox="0 0 530.000000 531.000000"
 preserveAspectRatio="xMidYMid meet">

<g transform="translate(0.000000,531.000000) scale(0.100000,-0.100000)"
fill="#000000" stroke="none">
<path d="M1614 5166 c-45 -44 -51 -63 -45 -143 l2 -33 -114 0 c-256 0 -426
-63 -586 -215 -121 -116 -207 -284 -231 -450 -8 -58 -10 -524 -8 -1700 l3
-1620 23 -79 c87 -308 263 -506 540 -606 162 -58 148 -58 1332 -59 597 -1
1148 3 1225 8 154 11 258 37 375 96 86 43 198 132 256 203 58 70 136 230 166
337 l23 80 3 1328 c1 733 -1 1327 -6 1327 -5 0 -34 -55 -66 -122 -32 -69 -79
-149 -109 -187 l-52 -65 -2 -1081 c-1 -594 -4 -1108 -7 -1142 -14 -163 -135
-347 -293 -443 -87 -53 -183 -80 -323 -90 -69 -4 -620 -7 -1225 -6 -1016 2
-1105 3 -1160 19 -181 53 -320 165 -394 319 -79 163 -74 52 -78 1656 l-4 1433
78 -7 c93 -8 645 -10 1601 -6 l702 2 0 23 c0 44 29 119 55 148 l27 27 -53 6
c-102 10 -738 17 -1573 17 l-838 0 7 92 c9 116 44 222 102 309 92 136 233 200
474 214 l122 7 -6 -104 c-8 -124 3 -167 53 -220 58 -61 111 -64 174 -8 49 42
60 83 51 193 -3 50 -9 100 -11 111 -5 20 0 20 746 20 l752 0 -7 -105 c-6 -87
-4 -112 10 -147 24 -59 76 -103 122 -103 32 0 45 8 91 57 64 67 72 85 61 133
-5 19 -9 65 -9 101 l0 66 143 -4 c78 -2 162 -9 187 -14 70 -16 210 -79 275
-124 33 -23 86 -50 119 -60 72 -23 159 -78 208 -133 21 -23 40 -42 42 -42 13
0 -30 122 -72 206 -92 182 -249 308 -472 378 -78 25 -99 27 -247 27 -89 0
-167 -2 -172 -5 -5 -3 -9 20 -8 54 0 71 -31 127 -86 153 -47 23 -68 21 -107
-5 -58 -40 -75 -72 -75 -141 l0 -62 -747 0 -748 0 0 53 c0 97 -61 172 -139
172 -26 0 -43 -9 -77 -44z"/>
<path d="M3901 4449 c-72 -12 -144 -53 -195 -111 -46 -53 -163 -260 -287 -508
-45 -91 -135 -264 -199 -385 -223 -418 -739 -1440 -779 -1542 -14 -37 -23 -95
-31 -200 -5 -81 -17 -242 -25 -358 -18 -252 -19 -342 -4 -384 13 -37 41 -55
72 -46 12 4 126 77 252 162 531 357 533 359 606 516 68 144 557 1118 570 1133
5 6 88 168 185 360 446 882 430 845 422 968 -7 102 -39 166 -128 250 -85 80
-169 124 -270 142 -85 15 -112 15 -189 3z m214 -254 c44 -25 95 -61 114 -81
32 -35 33 -39 28 -92 -7 -66 -19 -82 -44 -60 -10 9 -76 48 -148 86 -178 95
-195 105 -195 117 0 6 19 25 42 43 61 47 102 44 203 -13z m-161 -306 c110 -55
208 -108 218 -117 13 -14 15 -26 8 -67 -10 -61 -5 -67 75 -94 33 -11 53 -20
44 -21 -33 0 -189 60 -299 116 -63 33 -156 79 -207 102 -118 56 -123 61 -93
115 26 47 40 67 48 67 2 0 95 -45 206 -101z m-327 -254 c13 -9 71 -35 130 -59
137 -56 229 -105 225 -119 -2 -7 -95 -194 -206 -417 -438 -873 -551 -1098
-592 -1187 -24 -51 -45 -93 -48 -93 -3 0 -44 23 -92 51 -97 57 -282 149 -301
149 -18 0 -16 25 2 40 8 6 23 35 34 63 10 29 112 237 226 462 114 226 221 437
237 470 17 33 36 67 44 76 8 9 25 42 38 75 12 32 35 76 49 97 14 21 31 55 38
75 6 20 22 51 35 68 13 17 32 55 43 83 19 51 99 181 111 181 3 0 15 -7 27 -15z
m-940 -1904 c81 -41 210 -99 248 -111 22 -7 53 -19 68 -27 l28 -14 -78 -58
c-43 -32 -107 -79 -143 -105 -36 -25 -92 -69 -125 -96 -37 -32 -63 -46 -69
-40 -6 6 -5 67 3 167 6 87 11 188 11 224 0 57 5 79 16 79 2 0 20 -9 41 -19z"/>
<path d="M1382 3583 c-13 -2 -38 -20 -57 -39 -41 -41 -47 -90 -15 -141 41 -67
10 -64 621 -63 533 1 554 1 585 20 87 54 89 150 5 203 -36 22 -37 22 -576 23
-297 1 -550 0 -563 -3z"/>
<path d="M1364 2966 c-70 -31 -94 -107 -53 -172 41 -68 7 -64 615 -64 l551 0
34 23 c37 25 79 81 79 106 0 30 -39 80 -77 99 -36 19 -65 20 -578 21 -434 0
-546 -2 -571 -13z"/>
<path d="M1472 2371 l-114 -6 -34 -37 c-39 -44 -45 -87 -15 -131 42 -65 20
-62 531 -62 256 0 473 4 483 8 29 13 77 87 77 120 0 21 -11 41 -39 68 l-39 39
-108 0 c-60 0 -226 2 -369 4 -143 2 -311 1 -373 -3z"/>
<path d="M1414 1781 c-113 -19 -153 -112 -81 -189 46 -50 60 -52 312 -52 261
0 279 4 315 63 30 49 26 93 -13 132 -18 18 -51 38 -72 44 -43 12 -392 13 -461
2z"/>
<path d="M3715 1326 c-260 -13 -277 -17 -295 -87 -6 -22 -9 -118 -8 -224 3
-217 14 -196 -125 -245 -51 -17 -106 -38 -123 -46 -39 -19 -57 -55 -44 -89 9
-22 15 -25 64 -25 73 0 244 34 302 59 25 12 76 47 113 79 36 32 91 77 122 99
67 50 239 229 285 298 38 58 58 125 49 166 -8 34 23 32 -340 15z m104 -155
c27 -17 -10 -71 -136 -200 l-122 -126 -1 121 c0 67 -3 142 -6 168 l-7 46 129
0 c71 0 135 -4 143 -9z"/>
</g>
</svg>
